<svg width="1817" height="1513" viewBox="0 0 1817 1513" fill="none" xmlns="http://www.w3.org/2000/svg">
<path d="M1511.62 1428.63L1508.48 1470.59L1444.51 1449.61L1470.72 1418.14L1511.62 1428.63Z" fill="#FEB8B8"/>
<path d="M1744.43 1414.99L1741.28 1455.9L1705.62 1461.14L1684.65 1441.21L1708.77 1402.4L1744.43 1414.99Z" fill="#FEB8B8"/>
<path d="M1770.64 892.613C1770.64 892.613 1798.96 926.179 1763.3 977.578C1727.64 1028.98 1684.65 1079.33 1684.65 1079.33L1604.94 1230.38C1604.94 1230.38 1564.05 1378.28 1554.61 1382.47C1545.17 1386.67 1539.93 1369.89 1545.17 1387.72C1550.41 1405.55 1547.27 1404.5 1543.07 1405.55C1538.88 1406.61 1527.34 1404.5 1531.54 1411.85C1535.73 1419.19 1538.88 1419.19 1530.49 1419.19C1522.1 1419.19 1518.95 1413.95 1518.95 1421.29C1518.95 1428.63 1511.61 1445.41 1511.61 1445.41C1511.61 1445.41 1460.23 1430.73 1458.13 1424.43C1456.04 1418.14 1471.76 1414.99 1468.62 1408.7C1465.47 1402.41 1464.43 1402.41 1464.43 1392.97C1464.43 1383.53 1470.72 1381.43 1470.72 1381.43C1470.72 1381.43 1475.96 1379.33 1473.86 1375.14C1471.77 1370.94 1463.38 1373.04 1473.86 1367.79C1484.35 1362.55 1527.35 1202.06 1527.35 1202.06C1527.35 1202.06 1527.35 1122.33 1540.98 1096.11C1554.61 1069.89 1544.13 883.17 1576.65 881.073C1609.16 878.975 1770.64 892.613 1770.64 892.613Z" fill="#0E0E0E"/>
<path d="M1760.16 952.402L1753.86 1114.99C1753.86 1114.99 1785.32 1272.33 1774.84 1320.58C1764.35 1368.83 1771.69 1362.54 1765.4 1370.93C1759.1 1379.32 1753.86 1375.13 1759.1 1382.47C1764.35 1389.81 1767.48 1391.91 1759.1 1400.31C1750.73 1408.7 1746.52 1428.63 1746.52 1428.63L1693.04 1423.39C1693.04 1423.39 1706.67 1399.26 1701.42 1394.01C1696.17 1388.77 1682.54 1397.16 1693.04 1385.63C1703.54 1374.11 1709.82 1379.34 1703.53 1374.1C1697.23 1368.85 1687.8 1370.95 1696.19 1362.56C1704.57 1354.17 1714.02 1354.18 1705.62 1351.02C1697.23 1347.86 1687.79 1351.02 1691.99 1344.72C1696.19 1338.43 1701.43 1331.09 1701.43 1331.09L1688.85 1235.63C1688.85 1235.63 1674.17 1204.17 1678.36 1190.53C1682.55 1176.89 1660.53 1064.66 1660.53 1064.66L1760.16 952.402Z" fill="#0E0E0E"/>
<path d="M1737.09 1435.97C1737.09 1435.97 1747.58 1425.48 1750.72 1431.77C1753.87 1438.07 1776.93 1494.71 1763.31 1498.9C1749.68 1503.1 1729.75 1507.29 1719.26 1504.15C1708.78 1501.01 1686.75 1486.31 1660.54 1486.31C1634.32 1486.31 1612.3 1474.77 1612.3 1470.58C1612.3 1466.38 1608.11 1441.21 1628.03 1441.21C1647.95 1441.21 1684.66 1418.13 1684.66 1418.13C1684.66 1418.13 1693.04 1401.35 1697.24 1402.4C1701.44 1403.45 1698.29 1437.01 1698.29 1437.01C1698.29 1437.01 1722.4 1460.09 1737.09 1435.97Z" fill="white"/>
<path d="M1504.28 1449.6C1504.28 1449.6 1513.72 1426.53 1523.16 1431.77C1532.6 1437 1526.3 1502.04 1526.3 1502.04C1526.3 1502.04 1517.93 1515.67 1493.8 1512.53C1469.67 1509.38 1405.71 1502.04 1391.03 1505.19C1376.34 1508.33 1336.5 1490.5 1346.98 1466.37C1346.98 1466.37 1352.23 1452.74 1377.4 1453.79C1402.56 1454.84 1448.7 1424.42 1448.7 1424.42C1448.7 1424.42 1456.05 1403.44 1458.14 1405.53C1460.24 1407.63 1462.34 1444.35 1462.34 1444.35C1462.34 1444.35 1489.6 1462.19 1504.28 1449.6Z" fill="white"/>
<path d="M1641.66 482.475C1675.25 482.475 1702.48 455.236 1702.48 421.635C1702.48 388.035 1675.25 360.796 1641.66 360.796C1608.07 360.796 1580.83 388.035 1580.83 421.635C1580.83 455.236 1608.07 482.475 1641.66 482.475Z" fill="#FEB8B8"/>
<path d="M1688.85 425.83C1688.85 425.83 1721.35 490.865 1732.89 497.159C1744.42 503.454 1654.24 542.266 1654.24 542.266C1654.24 542.266 1639.56 478.28 1621.73 464.644C1603.9 451.009 1688.85 425.83 1688.85 425.83Z" fill="#FEB8B8"/>
<path d="M1595.52 957.646L1591.32 997.506C1591.32 997.506 1546.23 981.773 1560.91 952.402L1595.52 957.646Z" fill="#FEB8B8"/>
<path d="M1577.7 897.857C1609.16 931.414 1775.88 903.092 1775.88 903.092L1773.8 878.969L1794.77 856.956L1788.48 754.152C1788.48 754.152 1807.34 705.906 1810.49 632.479C1810.68 627.966 1810.41 623.445 1809.68 618.987C1798.86 553.211 1691.79 510.847 1688.85 511.842C1687.37 512.33 1671.61 520.546 1655.16 529.189C1636.28 539.111 1616.5 549.605 1616.5 549.605C1591.33 559.061 1595.53 710.111 1587.13 723.745C1578.73 737.378 1587.13 784.563 1587.13 784.563L1577.7 829.665C1577.7 829.665 1546.23 864.299 1577.7 897.857Z" fill="#F0F0F0"/>
<path opacity="0.1" d="M1679.33 564.857C1679.33 564.857 1708.69 652.968 1702.4 712.759C1696.11 772.55 1627.94 943.528 1627.94 943.528L1604.88 956.115V985.484L1588.66 941.519L1633.28 848.19C1633.28 848.19 1577.6 526.047 1679.33 564.857Z" fill="black"/>
<path opacity="0.1" d="M1651.79 538.419C1682.21 521.639 1728.36 565.712 1776.59 612.899C1793.92 629.84 1803.93 628.136 1809.68 618.985C1798.87 553.209 1691.79 510.845 1688.85 511.84C1687.37 512.327 1671.61 520.543 1655.16 529.187L1651.79 538.419Z" fill="black"/>
<path d="M1651.8 530.311L1664.39 495.696C1664.39 495.696 1750.38 454.787 1807 495.696L1816.44 554.436C1816.44 554.436 1824.82 651.988 1776.59 604.786C1728.36 557.584 1682.21 513.527 1651.8 530.311Z" fill="#F0F0F0"/>
<path d="M1676.26 550.656C1676.26 550.656 1705.63 638.767 1699.34 698.558C1693.04 758.349 1624.88 929.328 1624.88 929.328L1601.81 941.923V971.294L1553.57 957.659L1564.06 923.044C1564.06 923.044 1547.28 902.065 1558.82 895.77C1570.35 889.476 1568.26 854.861 1568.26 854.861C1568.26 854.861 1574.54 511.844 1676.26 550.656Z" fill="#F0F0F0"/>
<path d="M1695.88 447.104C1694.89 442.402 1695.02 437.343 1692.77 433.099C1689.39 426.735 1681.62 424.073 1674.45 423.445C1665.28 422.648 1656.05 424.234 1646.87 423.606C1637.7 422.979 1627.9 419.48 1623.33 411.496C1621.51 408.311 1620.61 404.561 1618.19 401.8C1613.16 396.053 1604 396.943 1596.77 399.406C1589.54 401.868 1582 405.466 1574.61 403.54C1568.4 386.152 1576.05 366.095 1589.28 353.22C1602.51 340.345 1620.36 333.417 1638.08 328.253C1661.46 321.44 1687.77 317.415 1709.26 328.859C1740.43 345.452 1751.43 389.372 1748.55 422.106C1747.47 434.48 1745.69 448.492 1735.69 456.846C1721.03 469.091 1700.31 468.04 1695.88 447.104Z" fill="#BD9B68"/>
<path d="M1314.26 0.745728H0.562988V842.33H1314.26V0.745728Z" fill="#293046"/>
<path d="M1280.99 106.301H42.4233V792.54H1280.99V106.301Z" fill="#1F263C"/>
<path d="M1313.7 0H0V55.8259H1313.7V0Z" fill="#0076FF"/>
<path d="M41.4762 38.8892C47.1894 38.8892 51.821 34.2564 51.821 28.5415C51.821 22.8267 47.1894 18.1938 41.4762 18.1938C35.7629 18.1938 31.1313 22.8267 31.1313 28.5415C31.1313 34.2564 35.7629 38.8892 41.4762 38.8892Z" fill="white"/>
<path d="M80.7388 38.8892C86.4521 38.8892 91.0837 34.2564 91.0837 28.5415C91.0837 22.8267 86.4521 18.1938 80.7388 18.1938C75.0256 18.1938 70.394 22.8267 70.394 28.5415C70.394 34.2564 75.0256 38.8892 80.7388 38.8892Z" fill="white"/>
<path d="M120.002 38.8892C125.715 38.8892 130.347 34.2564 130.347 28.5415C130.347 22.8267 125.715 18.1938 120.002 18.1938C114.289 18.1938 109.657 22.8267 109.657 28.5415C109.657 34.2564 114.289 38.8892 120.002 38.8892Z" fill="white"/>
<path d="M259.114 202.486L177.188 283.413L259.114 364.337L277.548 345.898L215.598 283.922L278.066 221.436L259.114 202.486Z" fill="#0076FF"/>
<path d="M326.243 202.486L408.167 283.413L326.243 364.337L307.809 345.898L369.764 283.924L307.291 221.436L326.243 202.486Z" fill="#0076FF"/>
<path d="M591.242 222.794C584.541 222.794 579.109 226.65 579.109 231.404C579.109 236.157 584.541 240.013 591.242 240.013H1163.19C1169.89 240.013 1175.32 236.157 1175.32 231.404C1175.32 226.65 1169.89 222.794 1163.19 222.794H591.242Z" fill="#E6E6E6"/>
<path d="M1157.5 694.466H195.344C185.508 694.466 177.538 688.786 177.527 681.787V511.921C177.538 504.922 185.508 499.242 195.344 499.242H1157.5C1167.34 499.242 1175.31 504.922 1175.32 511.921V681.785C1175.31 688.784 1167.34 694.458 1157.5 694.466ZM195.344 504.309C189.442 504.309 184.66 507.718 184.653 511.917V681.78C184.653 685.98 189.442 689.384 195.344 689.388H1157.5C1163.41 689.388 1168.19 685.98 1168.19 681.78V511.921C1168.19 507.722 1163.41 504.318 1157.5 504.314L195.344 504.309Z" fill="#E6E6E6"/>
<path d="M294.424 639.839C318.198 639.839 337.47 620.562 337.47 596.781C337.47 573.001 318.198 553.723 294.424 553.723C270.65 553.723 251.377 573.001 251.377 596.781C251.377 620.562 270.65 639.839 294.424 639.839Z" fill="#E6E6E6"/>
<path d="M415.834 562.345C413.551 562.342 411.361 563.246 409.745 564.858C408.128 566.471 407.219 568.659 407.216 570.943C407.213 573.226 408.117 575.417 409.729 577.033C411.341 578.65 413.529 579.56 415.811 579.563H821.593C823.875 579.563 826.065 578.656 827.679 577.041C829.293 575.427 830.199 573.237 830.199 570.954C830.199 568.67 829.293 566.481 827.679 564.866C826.065 563.252 823.875 562.345 821.593 562.345H415.834Z" fill="#0076FF"/>
<path d="M415.834 614.001C414.703 614 413.584 614.221 412.539 614.653C411.494 615.084 410.545 615.717 409.745 616.515C408.128 618.128 407.219 620.316 407.216 622.599C407.213 624.883 408.117 627.074 409.729 628.69C411.341 630.307 413.529 631.217 415.811 631.22H590.43C592.713 631.223 594.903 630.318 596.519 628.706C598.135 627.094 599.045 624.905 599.048 622.622C599.051 620.338 598.147 618.148 596.535 616.531C594.923 614.914 592.735 614.004 590.452 614.001H415.834Z" fill="#0076FF"/>
<path d="M587.065 274.372C584.902 274.546 582.884 275.529 581.413 277.124C579.942 278.719 579.125 280.81 579.125 282.981C579.125 285.151 579.942 287.242 581.413 288.837C582.884 290.433 584.902 291.415 587.065 291.59H961.906C964.069 291.415 966.087 290.433 967.558 288.837C969.03 287.242 969.847 285.151 969.847 282.981C969.847 280.81 969.03 278.719 967.558 277.124C966.087 275.529 964.069 274.546 961.906 274.372H587.065Z" fill="#E6E6E6"/>
<path d="M589.531 325.949C583.776 325.949 579.109 329.804 579.109 334.558C579.109 339.312 583.776 343.167 589.531 343.167H1080.88C1086.64 343.167 1091.31 339.312 1091.31 334.558C1091.31 329.804 1086.64 325.949 1080.88 325.949H589.531Z" fill="#E6E6E6"/>
</svg>
